<svg width="1789" height="92" viewBox="0 0 1789 92" fill="none" xmlns="http://www.w3.org/2000/svg">
<path d="M56.5 42C55 36.5 55 30.4996 64.5 34C74 37.5004 75 49.5003 66 62.5003C57 75.5003 49.5 75.0004 34 72.5004C33.7552 72.4609 33.5185 72.4175 33.2897 72.3702C17.9864 69.2312 1.54797 44.4725 2.99998 28.5004C6 15.0004 14.5 3.50034 46.5 2.50034C78.5 1.50034 109.5 26.0005 142.5 46.0003C164.467 59.3136 208.168 78.0303 319.5 81.5C375.416 83.2426 429.324 86.5422 544.5 72.5004C578.661 68.3356 609.209 64.7362 636.488 61.6471C565.908 54.6013 515.78 42.5788 571 29.5004C604.394 21.5913 677.559 16.9 762.281 14.6347C883.62 10.9279 1032.77 12.7703 1118.78 17.4438C1164.48 8.30071 1222.34 2.50034 1296 2.50034C1374.89 2.50034 1424.02 7.7681 1482 15.6813C1558.88 26.1742 1647.02 58.8185 1685.5 72.5004C1753 96.5004 1781 95.5003 1786 62.5003C1791 29.5004 1769.5 15.6813 1740 15.6813C1717.88 15.6813 1683.95 14.1739 1679.11 20.3771C1678.57 23.1555 1680.41 26.2086 1685.5 29.5004C1699.31 38.4366 1729.99 47.8129 1750.76 50.4803C1735.18 34.7588 1746.92 35.7417 1755.5 38.5003C1746.17 35.5003 1743.6 18.1003 1766 38.5003C1778.84 50.1897 1768.35 52.7381 1750.76 50.4803C1752.13 51.8558 1753.7 53.3592 1755.5 55.0004C1783.5 80.5004 1711 46.0003 1685.5 29.5004C1679.12 25.3733 1677.5 22.4462 1679.11 20.3771C1681.29 9.22874 1721.89 2.50034 1745.5 2.50034C1775 2.50034 1791 29.5004 1786 62.5003C1781 95.5003 1753 96.5004 1685.5 72.5004C1647.02 58.8185 1616.38 48.9932 1539.5 38.5003C1481.52 30.5871 1374.89 2.50034 1296 2.50034C1222.34 2.50034 1164.48 8.30071 1118.78 17.4438C1175.09 20.5035 1204.33 24.7766 1181 29.5004C1099.5 46.0003 940 106.5 983.5 72.5004C1009.4 52.2586 1050.18 31.3079 1117.67 17.6669C1032.23 13.1655 885.111 11.3505 762.281 14.6347C685.591 16.9776 620.009 21.5373 588.5 29C534.247 41.8494 577.722 53.793 642.182 61.0043C883.961 33.8014 862.074 47.7513 829 62.5003C822.189 65.5378 805.872 67.2366 784.492 67.8183C744.19 69.0249 685.423 66.5322 636.488 61.6471C609.209 64.7362 578.661 68.3356 544.5 72.5004C429.324 86.5422 349.916 90.4682 294 88.7256C182.668 85.2559 164.467 59.3136 142.5 46.0003C109.5 26.0005 78.5 1.50034 46.5 2.50034C14.5 3.50034 40 22.0004 37 35.5004C35.5488 51.4638 19.0339 69.4234 33.2897 72.3702C33.5268 72.4188 33.7635 72.4622 34 72.5004C49.5 75.0004 57 75.5003 66 62.5003C75 49.5003 56 59.0004 48.5 51.5004C42.5 45.5004 48 39.4997 56.5 42Z" fill="url(#paint0_angular_8:39)"/>
<path d="M66 62.5003C75 49.5003 74 37.5004 64.5 34C55 30.4996 55 36.5 56.5 42C48 39.4997 42.5 45.5004 48.5 51.5004C56 59.0004 75 49.5003 66 62.5003ZM66 62.5003C57 75.5003 49.5 75.0004 34 72.5004M34 72.5004C18.5 70.0004 1.52547 44.72 2.99998 28.5004C6 15.0004 14.5 3.50034 46.5 2.50034M34 72.5004C18.5 70.0004 35.5255 51.7199 37 35.5004C40 22.0004 14.5 3.50034 46.5 2.50034M46.5 2.50034C78.5 1.50034 109.5 26.0005 142.5 46.0003M142.5 46.0003C164.467 59.3136 182.668 85.2559 294 88.7256C349.916 90.4682 429.324 86.5422 544.5 72.5004M142.5 46.0003C164.467 59.3136 208.168 78.0303 319.5 81.5C375.416 83.2426 429.324 86.5422 544.5 72.5004M544.5 72.5004C889 30.5004 866 46.0003 829 62.5003M829 62.5003C792 79.0004 457 56.5004 571 29.5004C685 2.50035 1262.5 13.0005 1181 29.5004M829 62.5003C792 79.0004 474.5 56 588.5 29C702.5 1.99995 1262.5 13.0005 1181 29.5004M1181 29.5004C1099.5 46.0003 940 106.5 983.5 72.5004C1027 38.5003 1112.5 2.50034 1296 2.50034M1296 2.50034C1374.89 2.50034 1424.02 7.7681 1482 15.6813C1558.88 26.1742 1647.02 58.8185 1685.5 72.5004M1296 2.50034C1374.89 2.50034 1481.52 30.5871 1539.5 38.5003C1616.38 48.9932 1647.02 58.8185 1685.5 72.5004M1685.5 72.5004C1753 96.5004 1781 95.5003 1786 62.5003M1786 62.5003C1791 29.5004 1775 2.50034 1745.5 2.50034C1716 2.50034 1660 13.0005 1685.5 29.5004M1786 62.5003C1791 29.5004 1769.5 15.6813 1740 15.6813C1710.5 15.6813 1660 13.0005 1685.5 29.5004M1685.5 29.5004C1711 46.0003 1783.5 80.5004 1755.5 55.0004C1733.1 34.6004 1746.17 35.5003 1755.5 38.5003C1746.17 35.5003 1743.6 18.1003 1766 38.5003C1794 64.0003 1711 46.0003 1685.5 29.5004Z" stroke="black" stroke-width="4" stroke-linecap="round"/>
<defs>
<radialGradient id="paint0_angular_8:39" cx="0" cy="0" r="1" gradientUnits="userSpaceOnUse" gradientTransform="translate(913 1.99977) rotate(-180) scale(244.5 390.645)">
<stop offset="0.045544" stop-color="#CC0000"/>
<stop offset="0.451695" stop-color="#7653FF"/>
<stop offset="0.631022" stop-color="#CC0000"/>
<stop offset="0.922835" stop-color="#7653FF"/>
</radialGradient>
</defs>
</svg>
